<?xml version="1.0" encoding="utf-8"?>
<!-- Generator: Adobe Illustrator 16.0.0, SVG Export Plug-In . SVG Version: 6.00 Build 0)  -->
<!DOCTYPE svg PUBLIC "-//W3C//DTD SVG 1.1//EN" "http://www.w3.org/Graphics/SVG/1.1/DTD/svg11.dtd">
<svg version="1.1" id="Layer_1" xmlns="http://www.w3.org/2000/svg" xmlns:xlink="http://www.w3.org/1999/xlink" x="0px" y="0px"
	 width="320.762px" height="319.767px" viewBox="0 0 320.762 319.767" enable-background="new 0 0 320.762 319.767"
	 xml:space="preserve">
<path d="M31.048,223.098c-10.68-21.443-16.283-45.772-15.276-71.351C18.973,70.451,87.716,6.916,169.013,10.116
	c81.297,3.201,144.832,71.944,141.631,153.241c-1.042,26.445-9.022,51.006-22.11,72.008c2.619,2.2,5.136,4.46,7.539,6.779
	c14.541-22.752,23.428-49.521,24.564-78.394C324.056,76.944,256.214,3.542,169.406,0.124C82.6-3.294,9.197,64.547,5.78,151.354
	c-1.099,27.92,5.182,54.444,17.086,77.709C25.492,227.006,28.223,225.018,31.048,223.098z"/>
<g>
	<path d="M37.587,228.091c0.75-0.09,1.563-0.041,2.437,0.147c0.876,0.188,1.643,0.748,2.302,1.677
		c0.556,0.783,0.953,1.862,1.191,3.238c0.062,0.397,0.107,1.138,0.137,2.22c0.03,1.082-0.14,2.325-0.509,3.728
		c-0.37,1.403-1.027,2.919-1.975,4.546c-0.947,1.63-2.325,3.195-4.134,4.699c-0.491,0.349-0.841,0.635-1.052,0.857
		c-0.883,0.626-1.799,1.259-2.749,1.895c-0.95,0.638-1.949,1.256-3.001,1.854c0.462,1.587,0.974,3.503,1.537,5.752
		s1.096,4.429,1.597,6.537c0.501,2.11,0.952,3.941,1.354,5.495c0.401,1.555,0.629,2.422,0.685,2.604
		c0.522,1.984,1.045,3.968,1.567,5.95c0.522,1.985,1.131,3.466,1.825,4.443c0.313,0.44,0.587,0.726,0.824,0.851
		c0.237,0.127,0.481,0.21,0.732,0.253s0.459,0.079,0.627,0.106c0.167,0.029,0.321,0.142,0.459,0.337
		c0.383,0.539,0.304,1.127-0.235,1.767c-0.539,0.642-1.176,1.221-1.91,1.741c-0.686,0.487-1.416,0.986-2.191,1.5
		c-0.777,0.514-1.561,0.887-2.352,1.117c-0.793,0.231-1.608,0.223-2.448-0.028c-0.839-0.249-1.624-0.889-2.354-1.916
		c-1.111-1.565-2.11-3.726-2.998-6.48c-0.888-2.753-1.676-5.653-2.364-8.696c-0.688-3.043-1.307-5.987-1.855-8.836
		c-0.549-2.847-1.033-5.188-1.454-7.025l-0.073,0.053c0.028-0.167,0.008-0.3-0.062-0.398c-1.88,1.188-3.734,2.412-5.562,3.671
		c-1.828,1.261-3.769,2.62-5.824,4.078c-1.615,1.146-3.106,1.896-4.475,2.247c-1.368,0.353-2.448-0.028-3.239-1.143
		c-0.343-0.484-0.626-1.194-0.849-2.129c-0.079-0.527-0.209-1.126-0.393-1.798c-0.079-0.526-0.199-1.135-0.359-1.828
		S0.138,259.781,0,259.068c0.07,0.099,0.199,0.228,0.386,0.389c0.188,0.161,0.475,0.253,0.857,0.274
		c0.385,0.022,0.894-0.063,1.528-0.257c0.636-0.192,1.443-0.638,2.421-1.332c3.964-2.813,8.245-5.721,12.844-8.728
		c4.599-3.005,9.001-6.001,13.21-8.987c1.272-0.902,1.951-1.552,2.038-1.949c0.086-0.396,0.042-0.72-0.134-0.968
		c-0.211-0.297-0.388-0.469-0.532-0.516s-0.278-0.027-0.399,0.06c-0.123,0.087-0.22,0.156-0.293,0.208s-0.163,0.004-0.269-0.146
		c-0.421-0.594-0.533-1.298-0.333-2.112c0.201-0.813,0.553-1.621,1.057-2.428c0.503-0.804,1.047-1.524,1.632-2.163
		c0.583-0.639,1.047-1.08,1.393-1.325C36.194,228.529,36.921,228.198,37.587,228.091z"/>
	<path d="M53.979,276.825c-0.109,0.054-0.321-0.177-0.637-0.69c-0.317-0.512-0.567-0.958-0.751-1.336
		c-0.131-0.27-0.244-0.532-0.334-0.788c-0.092-0.256-0.202-0.519-0.334-0.789c-0.069,1.503-0.326,2.963-0.769,4.38
		c-0.362,1.178-0.917,2.366-1.667,3.565c-0.75,1.201-1.827,2.142-3.229,2.825c-1.403,0.684-2.684,0.758-3.846,0.223
		c-1.162-0.535-2.124-1.584-2.886-3.149c-0.893-1.833-1.373-4.152-1.438-6.958c-0.065-2.805,0.4-5.784,1.399-8.941
		c0.721-2.219,1.571-4.103,2.553-5.649c0.982-1.546,1.975-2.83,2.978-3.854c1.003-1.022,1.951-1.816,2.842-2.386
		c0.891-0.567,1.58-0.97,2.065-1.206l0.647-0.315l5.259-2.563c0.565-0.208,1.144-0.322,1.734-0.345
		c0.456-0.021,0.912,0.023,1.367,0.135c0.456,0.113,0.801,0.411,1.038,0.896c0.079,0.162,0.16,0.707,0.245,1.633
		c0.084,0.927,0.193,2.075,0.327,3.444c0.133,1.371,0.279,2.868,0.438,4.493c0.157,1.625,0.362,3.244,0.615,4.856
		c0.251,1.613,0.538,3.126,0.859,4.537c0.321,1.412,0.692,2.55,1.112,3.412c0.158,0.323,0.322,0.594,0.495,0.811
		c0.171,0.217,0.325,0.46,0.456,0.729c0.369,0.756,0.105,1.483-0.787,2.186c-0.894,0.702-1.878,1.316-2.957,1.842
		c-0.432,0.211-0.971,0.406-1.616,0.588c-0.647,0.181-1.306,0.268-1.975,0.261c-0.671-0.006-1.287-0.139-1.848-0.4
		C54.771,278.008,54.321,277.527,53.979,276.825z M49.059,269.811c0.324-0.157,0.55-0.751,0.682-1.784
		c0.131-1.03,0.21-2.137,0.235-3.318c0.026-1.18,0.003-2.254-0.068-3.221s-0.119-1.477-0.146-1.531
		c-0.515,0.586-0.926,1.32-1.23,2.202c-0.305,0.883-0.515,1.787-0.631,2.71c-0.117,0.926-0.125,1.798-0.027,2.616
		c0.1,0.82,0.254,1.445,0.464,1.876C48.55,269.793,48.789,269.943,49.059,269.811z"/>
	<path d="M77.18,273.173c-0.232-0.745-0.362-1.961-0.386-3.651c-0.025-1.688,0.089-3.233,0.344-4.633l-0.085,0.026l0.177-1.847
		l-0.027-0.086c-0.103,0.473-0.298,1.146-0.587,2.022c-0.289,0.877-0.706,1.792-1.25,2.747c-0.544,0.957-1.259,1.871-2.141,2.743
		c-0.882,0.874-1.951,1.506-3.202,1.896c-1.423,0.444-2.615,0.331-3.574-0.345c-0.96-0.674-1.69-1.813-2.191-3.417
		c-0.608-1.946-0.779-4.345-0.511-7.195c0.268-2.849,1.099-5.749,2.495-8.699c0.942-1.992,1.983-3.668,3.122-5.03
		c1.14-1.36,2.276-2.486,3.407-3.374s2.177-1.544,3.139-1.972c0.963-0.426,1.729-0.729,2.299-0.906l6.614-2.066
		c0.59-0.121,1.141-0.168,1.653-0.14c0.454,0.047,0.898,0.16,1.332,0.338c0.434,0.181,0.73,0.526,0.891,1.042
		c0.287,0.917,0.342,2.203,0.169,3.86c-0.174,1.657-0.302,3.159-0.384,4.505c-0.294,6.503-0.502,11.724-0.624,15.658
		c-0.123,3.936,0.103,6.818,0.676,8.652c0.089,0.285,0.193,0.52,0.314,0.703c0.119,0.183,0.251,0.502,0.395,0.961
		c0.197,0.63-0.158,1.259-1.061,1.887c-0.904,0.628-1.986,1.14-3.246,1.533c-1.432,0.447-2.852,0.481-4.257,0.104
		c-1.407-0.378-2.45-1.655-3.13-3.831c-0.072-0.229-0.144-0.459-0.215-0.688C77.264,273.744,77.212,273.477,77.18,273.173z
		 M75.034,258.757c0.344-0.107,0.657-0.66,0.942-1.661c0.285-1,0.523-2.097,0.717-3.289c0.193-1.191,0.328-2.271,0.403-3.237
		c0.075-0.966,0.104-1.478,0.086-1.535c-0.598,0.502-1.114,1.165-1.546,1.991c-0.434,0.828-0.763,1.686-0.988,2.572
		c-0.226,0.888-0.351,1.745-0.376,2.568c-0.025,0.826,0.034,1.468,0.177,1.925C74.592,258.551,74.787,258.773,75.034,258.757z"/>
	<path d="M115.833,250.489c-0.227,1.692-0.359,3.245-0.396,4.656c-0.037,1.413,0.041,2.619,0.232,3.621
		c0.056,0.295,0.126,0.587,0.212,0.875c0.085,0.29,0.157,0.582,0.213,0.876c0.168,0.884-0.255,1.545-1.271,1.982
		s-2.114,0.77-3.292,0.994c-1.297,0.247-2.573,0.199-3.829-0.141c-1.256-0.341-2.194-1.337-2.814-2.991
		c-0.646,1.101-1.583,2.195-2.81,3.284c-1.228,1.09-2.729,1.954-4.499,2.598c-0.826,0.157-1.646,0.252-2.465,0.286
		c-0.818,0.033-1.576-0.098-2.273-0.392c-0.697-0.293-1.326-0.785-1.884-1.473c-0.559-0.688-0.956-1.65-1.192-2.889
		c-0.135-0.707-0.054-2.523,0.244-5.452c0.297-2.927,0.905-7.104,1.827-12.533c0.087-0.505,0.134-0.896,0.143-1.172
		c0.007-0.276-0.004-0.504-0.038-0.681c-0.09-0.471-0.331-0.775-0.724-0.915c-0.393-0.139-0.617-0.355-0.674-0.65
		c-0.078-0.412,0.095-0.781,0.522-1.107c0.426-0.324,0.817-0.522,1.17-0.59c2.887-0.55,5.198-0.684,6.932-0.404
		c1.733,0.281,2.78,1.364,3.139,3.25c0.225,1.18,0.163,2.703-0.183,4.57c-0.347,1.868-0.728,4.277-1.143,7.227
		c-0.151,1.128-0.327,2.215-0.524,3.261c-0.199,1.045-0.229,1.922-0.095,2.629s0.408,1.021,0.821,0.943
		c0.648-0.124,1.316-0.861,2.006-2.215c0.688-1.353,1.208-3.039,1.555-5.061c0.123-0.634,0.219-1.171,0.288-1.612
		c0.068-0.439,0.168-1.04,0.299-1.798c0.131-0.758,0.287-1.779,0.469-3.067c0.182-1.285,0.478-3.099,0.888-5.438
		c0.087-0.504,0.134-0.896,0.143-1.172c0.008-0.276-0.004-0.503-0.038-0.68c-0.09-0.472-0.331-0.776-0.725-0.916
		c-0.393-0.139-0.617-0.354-0.673-0.65c-0.079-0.412,0.095-0.781,0.522-1.107c0.426-0.324,0.817-0.521,1.17-0.589
		c2.887-0.551,5.198-0.685,6.932-0.405c1.733,0.281,2.779,1.364,3.139,3.25c0.225,1.18,0.181,2.715-0.13,4.606
		C116.716,245.19,116.318,247.587,115.833,250.489z"/>
	<path d="M124.816,260.956c-0.343,0.163-0.709,0.266-1.096,0.312c-0.388,0.047-0.79,0.095-1.207,0.145
		c-0.715,0.085-1.44,0.081-2.177-0.013c-0.736-0.094-1.397-0.316-1.983-0.67c-0.586-0.353-1.073-0.884-1.459-1.594
		c-0.386-0.709-0.591-1.666-0.614-2.872c-0.066-1.563,0.095-3.123,0.484-4.681c0.388-1.556,0.788-3.145,1.199-4.766l2.112-8.137
		c0.219-0.69,0.301-1.273,0.244-1.751c0.002-0.483-0.175-0.825-0.53-1.024c-0.356-0.199-0.552-0.447-0.587-0.746
		c-0.05-0.416,0.148-0.772,0.598-1.068c0.448-0.294,0.851-0.464,1.208-0.507c2.979-0.354,5.294-0.313,6.948,0.124
		c1.653,0.437,2.56,1.584,2.721,3.437c0.004,0.543-0.009,1.195-0.039,1.953c-0.031,0.761-0.205,1.581-0.522,2.465
		c-0.433,1.441-0.833,2.895-1.203,4.357c-0.369,1.465-0.697,2.893-0.984,4.287c-0.287,1.394-0.497,2.673-0.63,3.836
		c-0.133,1.165-0.153,2.135-0.061,2.908c0.042,0.357,0.096,0.684,0.162,0.978c0.065,0.295,0.119,0.62,0.162,0.978
		c0.071,0.597-0.12,1.027-0.571,1.292C126.539,260.464,125.814,260.716,124.816,260.956z M126.937,231.608
		c-1.371,0.164-2.503,0.042-3.397-0.365c-0.896-0.406-1.358-1.001-1.391-1.783c-0.071-0.595,0.087-1.173,0.473-1.732
		c0.387-0.56,0.899-1.073,1.538-1.543c0.638-0.469,1.361-0.872,2.167-1.211c0.806-0.336,1.656-0.56,2.549-0.666
		c1.31-0.156,2.398-0.028,3.263,0.382s1.343,1.004,1.436,1.777c0.082,1.199-0.572,2.305-1.961,3.315
		C130.223,230.794,128.665,231.402,126.937,231.608z"/>
	<path d="M155.492,247.944c0.325,0.464,0.504,0.995,0.537,1.594c0.061,1.139-0.138,2.201-0.595,3.187
		c-0.458,0.986-1.025,1.873-1.704,2.66c-0.679,0.789-1.439,1.475-2.277,2.061c-0.84,0.586-1.613,1.02-2.319,1.297
		c-2.232,0.961-4.02,1.508-5.364,1.641c-1.345,0.132-2.287,0.214-2.826,0.243c-3.476,0.187-6.307-0.503-8.494-2.066
		c-2.188-1.563-3.361-3.844-3.523-6.841c-0.165-3.055,0.438-5.806,1.809-8.254c1.369-2.446,3.104-4.553,5.202-6.319
		c2.098-1.765,4.412-3.151,6.941-4.159c2.529-1.007,4.873-1.569,7.029-1.686c3.115-0.168,5.425,0.309,6.927,1.429
		c1.502,1.122,2.294,2.432,2.375,3.929c0.036,0.659-0.087,1.462-0.366,2.408c-0.28,0.947-0.756,1.858-1.43,2.735
		c-0.674,0.879-1.61,1.65-2.805,2.314c-1.196,0.666-2.693,1.047-4.49,1.144c-0.3,0.016-0.69,0.022-1.17,0.018
		c-0.482-0.004-0.964-0.038-1.448-0.103c-0.485-0.063-0.911-0.176-1.28-0.336s-0.561-0.36-0.573-0.601
		c-0.01-0.18,0.079-0.469,0.269-0.87c0.188-0.4,0.407-0.818,0.653-1.252c0.247-0.434,0.479-0.852,0.699-1.255
		c0.218-0.401,0.322-0.723,0.309-0.963c-0.083-0.415-0.454-0.606-1.112-0.571c-0.48,0.026-0.937,0.172-1.374,0.435
		c-0.437,0.265-0.887,0.56-1.35,0.884c-0.114,0.128-0.356,0.366-0.728,0.716c-0.373,0.351-0.766,0.838-1.183,1.461
		s-0.767,1.393-1.047,2.31c-0.281,0.916-0.389,1.974-0.325,3.172c0.062,1.139,0.451,1.959,1.169,2.461
		c0.717,0.502,1.915,0.708,3.593,0.617c1.557-0.084,3.07-0.45,4.537-1.101c1.466-0.649,2.778-1.396,3.936-2.24
		c0.119-0.006,0.237-0.042,0.354-0.109c0.232-0.132,0.469-0.205,0.709-0.218C155.118,247.694,155.361,247.771,155.492,247.944z"/>
	<path d="M157.771,245.426c0.773-2.02,1.841-3.882,3.207-5.588c1.364-1.705,2.904-3.195,4.618-4.472
		c1.712-1.274,3.525-2.263,5.434-2.965c1.909-0.7,3.763-1.027,5.563-0.98c2.758,0.072,4.896,0.953,6.414,2.643
		c1.516,1.691,2.24,3.855,2.172,6.494c-0.066,2.52-0.746,4.963-2.037,7.329c-1.292,2.368-2.907,4.457-4.845,6.267
		c-1.938,1.811-4.091,3.255-6.46,4.333s-4.664,1.589-6.882,1.531c-2.759-0.071-4.897-0.953-6.413-2.643
		c-1.518-1.689-2.24-3.885-2.169-6.584c0.021-0.839,0.134-1.691,0.336-2.557C156.911,247.371,157.264,246.435,157.771,245.426z
		 M173.694,238.999c-0.301-0.008-0.81,0.535-1.528,1.626c-0.719,1.093-1.443,2.363-2.17,3.814c-0.729,1.453-1.367,2.891-1.913,4.317
		c-0.548,1.426-0.83,2.47-0.847,3.129c-0.019,0.72,0.181,1.085,0.602,1.096c0.239,0.006,0.688-0.507,1.346-1.54
		c0.657-1.032,1.348-2.245,2.075-3.638c0.726-1.391,1.363-2.814,1.912-4.271c0.547-1.456,0.833-2.604,0.855-3.444
		C174.164,239.371,174.054,239.008,173.694,238.999z"/>
	<path d="M214.925,239.652c-0.131,1.253-0.535,2.373-1.211,3.357c-0.678,0.984-1.475,1.821-2.391,2.509
		c-0.918,0.688-1.875,1.191-2.873,1.509s-1.916,0.432-2.75,0.345c-1.375-0.145-2.65-0.489-3.828-1.036
		c-1.18-0.545-1.744-1.057-1.695-1.535c0.014-0.118,0.119-0.259,0.316-0.419l0.297-0.24c0.508-0.248,0.887-0.555,1.137-0.922
		c0.25-0.365,0.449-0.69,0.602-0.978c0.156-0.346,0.285-0.724,0.391-1.135c0.063-0.596,0.043-0.991-0.059-1.183
		s-0.27-0.3-0.508-0.325c-0.537-0.057-1.143,0.242-1.814,0.896s-1.35,1.519-2.035,2.592c-0.688,1.074-1.359,2.301-2.016,3.68
		c-0.658,1.379-1.254,2.734-1.785,4.066s-0.98,2.582-1.344,3.75c-0.363,1.169-0.582,2.11-0.658,2.826c-0.031,0.3-0.031,0.585,0,0.86
		c0.031,0.274,0.031,0.562,0,0.859c-0.043,0.418-0.242,0.729-0.596,0.933c-0.354,0.205-0.775,0.357-1.27,0.455
		c-0.492,0.099-1.055,0.146-1.688,0.14c-0.633-0.007-1.219-0.037-1.756-0.094c-0.715-0.075-1.438-0.241-2.164-0.499
		c-0.728-0.257-1.351-0.639-1.871-1.146c-0.521-0.507-0.906-1.149-1.155-1.931c-0.25-0.78-0.283-1.764-0.097-2.951
		c0.165-1.008,0.549-2.219,1.15-3.635c0.601-1.415,1.287-2.927,2.06-4.535l4.043-8.354c0.23-0.458,0.389-0.818,0.477-1.081
		c0.086-0.263,0.141-0.482,0.16-0.662c0.043-0.417-0.104-0.749-0.439-0.996c-0.336-0.246-0.484-0.549-0.447-0.906
		c0.043-0.417,0.316-0.721,0.82-0.91c0.502-0.188,0.932-0.264,1.289-0.226c2.805,0.294,4.971,0.793,6.496,1.496
		c1.523,0.702,2.295,1.84,2.311,3.409c1.115-0.847,2.445-1.612,3.996-2.295c1.549-0.682,3.279-0.923,5.189-0.723
		c0.416,0.044,0.951,0.131,1.602,0.259c0.65,0.129,1.275,0.36,1.873,0.694s1.123,0.782,1.578,1.342
		c0.453,0.562,0.695,1.266,0.729,2.113L214.925,239.652z"/>
	<path d="M227.023,253.937c0.757-1.315,1.409-2.345,1.96-3.091c0.549-0.746,1.02-1.4,1.409-1.964
		c0.391-0.563,0.718-1.124,0.985-1.683c0.266-0.558,0.495-1.308,0.687-2.249c0.083-0.41,0.008-0.641-0.224-0.688
		c-0.932-0.189-2.03,0.368-3.294,1.672c-1.266,1.305-2.498,2.891-3.695,4.76c-1.198,1.869-2.271,3.795-3.219,5.774
		c-0.947,1.981-1.547,3.589-1.798,4.824c-0.071,0.353-0.105,0.667-0.1,0.943c0.004,0.276-0.022,0.563-0.082,0.856
		c-0.144,0.705-0.774,1.068-1.889,1.085c-1.114,0.018-2.264-0.092-3.449-0.333c-1.482-0.302-2.756-0.941-3.822-1.925
		c-1.066-0.981-1.366-2.619-0.9-4.913c0.155-0.763,0.402-1.525,0.74-2.283s0.837-1.712,1.5-2.863
		c0.661-1.151,1.517-2.569,2.563-4.255c1.046-1.685,2.355-3.838,3.93-6.457c0.271-0.434,0.467-0.792,0.586-1.074
		c0.117-0.282,0.195-0.512,0.231-0.688c0.096-0.47,0.001-0.84-0.279-1.112c-0.282-0.271-0.393-0.554-0.332-0.849
		c0.083-0.41,0.383-0.687,0.902-0.826c0.518-0.139,0.953-0.174,1.307-0.103c2.703,0.55,4.781,1.248,6.232,2.094
		c1.45,0.846,2.138,2.057,2.063,3.633c1.202-0.796,2.615-1.427,4.241-1.893c1.624-0.465,3.378-0.508,5.261-0.125
		c0.529,0.107,1.122,0.273,1.781,0.5c0.657,0.225,1.266,0.548,1.823,0.967c0.558,0.421,0.982,0.966,1.275,1.637
		c0.291,0.672,0.336,1.508,0.133,2.507c-0.071,0.353-0.183,0.744-0.33,1.173c-0.148,0.429-0.364,0.891-0.648,1.384
		c-2.035,3.688-3.781,6.778-5.235,9.268c-1.456,2.491-2.361,4.617-2.72,6.382c-0.072,0.353-0.109,0.682-0.109,0.987
		c-0.002,0.307-0.031,0.606-0.091,0.9c-0.132,0.647-0.754,0.995-1.865,1.044c-1.112,0.05-2.316-0.057-3.608-0.319
		c-1.471-0.299-2.71-0.979-3.719-2.042c-1.01-1.062-1.279-2.739-0.813-5.032c0.06-0.294,0.326-1.005,0.801-2.134
		C225.686,256.298,226.289,255.135,227.023,253.937z"/>
	<path d="M242.062,269.807c-0.38,0.017-0.757-0.03-1.131-0.138c-0.376-0.108-0.766-0.22-1.168-0.335
		c-0.692-0.199-1.359-0.484-2.002-0.856c-0.642-0.372-1.165-0.833-1.567-1.387c-0.403-0.552-0.646-1.23-0.727-2.034
		c-0.081-0.804,0.102-1.765,0.548-2.887c0.545-1.466,1.299-2.841,2.262-4.125c0.961-1.284,1.946-2.593,2.954-3.928l5.103-6.681
		c0.471-0.551,0.772-1.057,0.905-1.52c0.188-0.444,0.158-0.827-0.092-1.149c-0.251-0.321-0.335-0.626-0.252-0.915
		c0.116-0.403,0.437-0.654,0.966-0.753c0.526-0.098,0.964-0.098,1.311,0.002c2.883,0.828,5.001,1.765,6.356,2.809
		c1.353,1.045,1.744,2.453,1.174,4.224c-0.207,0.503-0.472,1.098-0.793,1.785c-0.324,0.688-0.803,1.378-1.438,2.069
		c-0.958,1.161-1.891,2.345-2.799,3.55c-0.908,1.207-1.765,2.396-2.57,3.569c-0.805,1.173-1.495,2.271-2.069,3.291
		c-0.574,1.022-0.969,1.908-1.185,2.656c-0.099,0.347-0.177,0.668-0.229,0.965c-0.055,0.297-0.131,0.617-0.23,0.964
		c-0.165,0.577-0.509,0.899-1.027,0.969C243.84,270.022,243.074,269.974,242.062,269.807z M255.4,243.581
		c-1.327-0.382-2.323-0.933-2.989-1.654c-0.668-0.722-0.864-1.45-0.59-2.184c0.165-0.575,0.534-1.047,1.108-1.414
		c0.572-0.364,1.244-0.64,2.016-0.825c0.771-0.184,1.592-0.275,2.467-0.274c0.873,0.002,1.743,0.126,2.608,0.375
		c1.268,0.363,2.222,0.904,2.859,1.617c0.638,0.714,0.849,1.446,0.634,2.195c-0.39,1.138-1.422,1.901-3.094,2.295
		C258.745,244.105,257.072,244.061,255.4,243.581z"/>
	<path d="M260.479,273.137c-0.112-0.045-0.086-0.356,0.08-0.937c0.165-0.579,0.325-1.064,0.48-1.455
		c0.11-0.279,0.229-0.539,0.356-0.778c0.127-0.24,0.246-0.499,0.357-0.778c-1.156,0.962-2.407,1.757-3.753,2.385
		c-1.113,0.526-2.365,0.919-3.757,1.174c-1.393,0.255-2.813,0.095-4.263-0.479c-1.451-0.575-2.37-1.472-2.758-2.69
		c-0.389-1.219-0.263-2.637,0.379-4.255c0.751-1.896,2.141-3.813,4.168-5.754c2.027-1.939,4.542-3.604,7.547-4.996
		c2.125-0.964,4.089-1.606,5.894-1.924c1.803-0.317,3.422-0.45,4.854-0.4c1.432,0.052,2.657,0.216,3.679,0.49
		c1.02,0.275,1.781,0.513,2.283,0.711l0.669,0.266l5.438,2.155c0.535,0.277,1.011,0.627,1.425,1.049
		c0.323,0.321,0.598,0.689,0.822,1.101c0.224,0.412,0.236,0.868,0.037,1.37c-0.066,0.167-0.414,0.595-1.04,1.281
		c-0.628,0.688-1.402,1.543-2.323,2.564c-0.923,1.023-1.93,2.14-3.022,3.353c-1.095,1.212-2.152,2.455-3.172,3.729
		c-1.022,1.273-1.946,2.505-2.771,3.694c-0.827,1.189-1.416,2.23-1.77,3.122c-0.133,0.335-0.222,0.639-0.265,0.912
		c-0.045,0.272-0.121,0.549-0.231,0.828c-0.31,0.781-1.024,1.077-2.145,0.893c-1.121-0.188-2.239-0.501-3.354-0.942
		c-0.446-0.178-0.954-0.443-1.523-0.798c-0.569-0.355-1.078-0.782-1.524-1.281c-0.448-0.5-0.765-1.045-0.949-1.635
		C260.14,274.52,260.191,273.863,260.479,273.137z M262.341,264.775c0.335,0.133,0.927-0.101,1.778-0.699
		c0.85-0.599,1.72-1.287,2.608-2.064c0.889-0.776,1.667-1.518,2.333-2.222s1.011-1.083,1.032-1.14
		c-0.779,0.015-1.599,0.206-2.454,0.576c-0.858,0.371-1.667,0.824-2.428,1.361c-0.762,0.537-1.412,1.119-1.95,1.744
		c-0.538,0.626-0.896,1.162-1.072,1.607C262.011,264.386,262.062,264.664,262.341,264.775z"/>
	<path d="M282.855,288.289c-1.584-0.397-3.048-0.934-4.394-1.605c-1.346-0.675-2.301-1.183-2.865-1.523
		c-1.745-1.057-3.063-2.064-3.955-3.025c-0.892-0.96-1.496-1.817-1.812-2.568c-0.317-0.753-0.431-1.435-0.34-2.047
		c0.089-0.611,0.259-1.122,0.508-1.534c0.621-1.026,1.361-1.7,2.223-2.021c0.859-0.321,1.729-0.426,2.609-0.314
		c0.879,0.111,1.746,0.356,2.605,0.735c0.857,0.379,1.595,0.754,2.211,1.127c0.462,0.279,0.886,0.536,1.271,0.769
		c0.385,0.233,0.499,0.479,0.345,0.734c-0.094,0.154-0.167,0.215-0.217,0.185c-0.052-0.031-0.139-0.031-0.263-0.001
		s-0.29,0.158-0.495,0.384c-0.208,0.227-0.481,0.621-0.823,1.186c-0.279,0.462-0.377,0.912-0.29,1.35
		c0.085,0.438,0.514,0.89,1.283,1.355c0.051,0.03,0.166,0.101,0.347,0.21c0.18,0.108,0.396,0.187,0.647,0.233
		c0.251,0.047,0.502,0.041,0.749-0.021c0.247-0.061,0.447-0.219,0.604-0.476c0.342-0.564,0.403-1.421,0.188-2.569
		c-0.218-1.147-0.48-2.395-0.789-3.738c-0.309-1.345-0.511-2.692-0.602-4.046c-0.094-1.354,0.171-2.543,0.793-3.57
		c0.683-1.129,1.638-2.042,2.865-2.737c1.226-0.694,2.628-1.126,4.203-1.296c1.574-0.168,3.3-0.036,5.177,0.397
		c1.876,0.435,3.815,1.257,5.817,2.469c0.821,0.496,1.69,1.059,2.61,1.685c0.918,0.626,1.705,1.295,2.361,2.008
		c0.656,0.712,1.107,1.442,1.358,2.188c0.248,0.747,0.156,1.48-0.278,2.199c-0.436,0.719-1.053,1.188-1.851,1.405
		c-0.799,0.218-1.641,0.305-2.524,0.261c-0.885-0.045-1.759-0.223-2.622-0.535c-0.863-0.312-1.552-0.624-2.064-0.934
		c-0.514-0.311-0.881-0.69-1.1-1.139c-0.22-0.449-0.252-0.8-0.096-1.058c0.062-0.103,0.165-0.216,0.31-0.339
		c0.144-0.123,0.247-0.234,0.31-0.338c0.342-0.564,0.308-0.972-0.103-1.22c-0.104-0.063-0.345-0.156-0.725-0.28
		c-0.381-0.126-0.727,0.069-1.036,0.582c-0.187,0.309-0.204,0.684-0.051,1.127c0.101,0.412,0.275,1.079,0.524,2.001
		c0.248,0.922,0.419,1.973,0.514,3.15c0.092,1.179,0.067,2.408-0.076,3.688s-0.558,2.486-1.24,3.615
		c-1.149,1.899-2.729,3.205-4.738,3.918C287.93,289.029,285.568,289.02,282.855,288.289z"/>
</g>
<path d="M33.286,316.096c-1.915,1.32,0.167-0.091,0.475-0.289c-1.323,0.854,0.84-0.487,0.895-0.52
	c1.166-0.695,2.363-1.326,3.567-1.954c3.333-1.739,6.764-3.285,10.24-4.715c7.696-3.166,15.642-5.713,23.65-7.954
	c18.428-5.158,37.401-8.392,56.415-10.412c36.112-3.838,75.939-4.362,110.478,8.437c11.412,4.229,22.774,10.677,29.655,21.02
	c0.646,0.971,17.059-10.415,16.039-11.947c-7.433-11.173-19.908-17.612-32.24-21.953c-16.434-5.785-34.077-8.04-51.39-9.07
	c-38.326-2.28-77.858,1.918-114.831,12.267c-17.721,4.96-34.649,11.893-49.841,22.369c-3.076,2.121-7.343,4.708-9.448,7.908
	c-0.71,1.08,1.365-0.033,1.269,0.016C29.997,318.391,31.647,317.226,33.286,316.096L33.286,316.096z"/>
<path fill="#010101" d="M194.495,209.233c-1.914-1.964-3.606-3.916-5.039-5.752c-1.509-1.939-3.084-4.045-4.755-6.275
	c-1.241-1.658-2.523-3.369-3.849-5.11l14.388,17.295C194.999,209.34,194.743,209.286,194.495,209.233"/>
<path fill="#010101" d="M203.671,164.783c0.012-4.132,0.021-8.406,0.705-12.602c0.752-4.614,3.506-7.402,7.965-8.063
	c1.307-0.194,2.68-0.346,4.076-0.45c3.299-0.246,6.795-0.249,10.996-0.008c0.951,0.054,1.904,0.116,2.857,0.18
	c3.676,0.241,7.479,0.492,11.193,0.214c0.781-0.059,1.547-0.138,2.277-0.24c5.049-0.697,9.238-3.712,11.494-8.271
	c2.266-4.572,2.117-9.75-0.4-14.209c-2.355-4.173-6.002-7.335-11.475-9.95c-6.408-3.061-12.182-7.346-17.16-12.733
	c-6.908-7.472-14.676-15.015-24.65-19.586c-1.943-0.89-2.119-2.144-1.785-3.751c2.941-14.115,21.033-50.617,19.366-51.617
	s-34.988,45.424-34.988,45.424c-0.356,0.55-0.765,1.173-1.501,1.228c-0.499,0.037-0.949-0.203-1.471-0.574
	c-6.243-4.446-13.182-5.485-20.569-3.084c-5.017,1.628-9.21,5.001-12.816,10.313l-3.361,4.438c-2.808,3.324-5.937,6.718-9.972,9.255
	c-2.828,1.778-5.125,2.647-7.444,2.821c-1.054,0.079-2.117,0.003-3.172-0.224c0.476,1.712,1.492,3.065,2.549,4.282
	c4.003,4.61,9.22,7.322,15.948,8.29l1.627,0.234l-1.177,1.148c-2.714,2.646-5.807,4.014-9.735,4.308
	c-2.84,0.211-5.803-0.173-8.669-0.546c-1.084-0.141-2.196-0.285-3.301-0.397c3.226,8.542,10.221,12.579,19.67,15.933l1.423,0.505
	l-1.208,0.905c-3.188,2.393-6.559,3.692-10.305,3.972c-4.62,0.345-9.111-0.873-13.987-2.496c1.661,5.405,4.228,9.909,7.815,13.722
	c11.501,1.263,22.774,5.336,33.511,12.111c14.116,8.907,22.542,19.449,23.456,20.622l23.191,27.875
	c-0.252-3.955-0.393-7.937-0.527-11.809l-0.063-1.724c-0.244-6.781-0.492-14.665-0.398-22.426
	C203.667,166.795,203.671,165.789,203.671,164.783z"/>
<path d="M232.479,159.759c-6.699-4.121-15.273-7.608-24.783-10.429c-0.861,1.068-1.447,2.427-1.721,4.111
	c-0.285,1.756-0.445,3.538-0.543,5.323c8.775,2.649,16.311,5.799,21.955,9.272c16.605,10.214,27.43,24.655,26.934,35.936
	c-0.252,5.815-3.549,10.347-9.791,13.473c-13.654,6.837-27.965-0.042-37.943-8.304l0.041,0.539l-1.443-1.735
	c-0.211-0.186-0.424-0.371-0.631-0.558c-3.02-2.711-5.557-5.476-7.428-7.881c-1.453-1.862-3.002-3.934-4.643-6.125
	c-1.286-1.716-2.627-3.509-4.031-5.348c-0.703-0.921-1.423-1.856-2.158-2.797l-6.103-7.336c-0.911-1.17-9.176-11.508-23.059-20.268
	c-10.617-6.699-21.759-10.704-33.114-11.902l-0.295-0.031l-0.205-0.215c-0.743-0.777-1.431-1.59-2.093-2.423
	c-3.107,0.714-5.821,1.594-8.035,2.646l-1.35,0.642c-5.197,0.366-10.392,1.296-15.548,2.842
	c-25.08,7.645-35.169,26.168-34.052,41.139c0.447,5.992,1.737,14.535,7.746,19.51c4.113,3.402,9.646,4.657,16.926,3.821
	c2.267-0.259,4.625-0.556,7.078-0.866c16.934-2.14,38.006-4.805,65.282,0.963c33.002,6.975,47.449,10.047,47.449,10.047l6.262,1.329
	c6.758,3.356,14.271,5.398,22.086,4.814c4.469-0.333,9.035-1.523,13.611-3.813c9.361-4.687,14.74-12.405,15.15-21.738
	C264.696,189.245,252.606,172.141,232.479,159.759z M194.495,211.235c-7.682-1.628-18.564-3.931-33.011-6.985
	c-14.181-2.998-26.694-3.852-37.851-3.683c-11.566,0.175-21.674,1.45-30.662,2.586c-2.414,0.306-4.732,0.599-6.962,0.854
	c-4.508,0.512-7.659-0.027-9.626-1.655c-2.367-1.958-3.757-6.126-4.251-12.744c-0.802-10.751,7.359-25.073,27.173-31.113
	c3.453-1.036,6.905-1.767,10.349-2.201c1.014-0.127,2.027-0.232,3.04-0.308c13.382-0.999,26.634,2.555,39.542,10.631
	c13.143,8.224,20.98,18.287,21.057,18.387l0.117,0.146l7.443,8.947l14.388,17.296C195.001,211.343,194.743,211.288,194.495,211.235z
	"/>
</svg>
